<svg width="20" height="20" viewBox="0 0 20 20" fill="none" xmlns="http://www.w3.org/2000/svg">
<path fill-rule="evenodd" clip-rule="evenodd" d="M0 10C0 4.47715 4.47715 0 10 0C15.5228 0 20 4.47715 20 10C20 15.5228 15.5228 20 10 20H2C0.89543 20 0 19.1046 0 18V10ZM6 9C6 8.44771 6.44772 8 7 8H13C13.5523 8 14 8.44771 14 9C14 9.55229 13.5523 10 13 10H7C6.44772 10 6 9.55229 6 9ZM7 12C6.44772 12 6 12.4477 6 13C6 13.5523 6.44772 14 7 14H10C10.5523 14 11 13.5523 11 13C11 12.4477 10.5523 12 10 12H7Z" fill="#09244B"/>
</svg>
