<?xml version="1.0" encoding="utf-8"?>
<!-- Generator: Adobe Illustrator 28.3.0, SVG Export Plug-In . SVG Version: 6.00 Build 0)  -->
<svg version="1.1" id="Layer_1" xmlns="http://www.w3.org/2000/svg" xmlns:xlink="http://www.w3.org/1999/xlink" x="0px" y="0px"
	 viewBox="0 0 256 256" style="enable-background:new 0 0 256 256;" xml:space="preserve">
<style type="text/css">
	.st0{fill:none;}
</style>
<g>
	<path class="st0" d="M256,0v256H0V0H256z M134.3,248.1l-0.1,0l-0.8,0.4l-0.2,0l-0.1,0l-0.8-0.4c-0.1,0-0.2,0-0.3,0.1l0,0.1
		l-0.2,4.6l0.1,0.2l0.1,0.1l1.1,0.8l0.2,0l0.1,0l1.1-0.8l0.1-0.2l0-0.2l-0.2-4.6C134.5,248.2,134.4,248.1,134.3,248.1 M137.2,246.9
		l-0.1,0l-2,1l-0.1,0.1l0,0.1l0.2,4.6l0.1,0.1l0.1,0.1l2.1,1c0.1,0,0.2,0,0.3-0.1l0-0.1l-0.4-6.5C137.3,247,137.3,246.9,137.2,246.9
		 M129.5,246.9c-0.1,0-0.2,0-0.3,0.1l-0.1,0.1l-0.4,6.5c0,0.1,0.1,0.2,0.2,0.3l0.2,0l2.1-1l0.1-0.1l0-0.1l0.2-4.6l0-0.1l-0.1-0.1
		L129.5,246.9z"/>
	<path d="M42.7,37.3c8.2,0,15.1,6.3,15.9,14.5l0.1,1.5v133.3h154.7c8.8,0,16,7.2,16,16c0,8.2-6.3,15.1-14.5,15.9l-1.5,0.1H42.7
		c-8.2,0-15.1-6.3-15.9-14.5l-0.1-1.5V53.3C26.7,44.5,33.8,37.3,42.7,37.3 M215.4,67.4c14.4,0,21.5,17.4,11.4,27.5l-59.4,59.4
		c-6.7,6.7-17.5,6.7-24.1,0c0,0,0,0,0,0l-25.6-25.6l-26.4,26.4c-6.3,6.2-16.4,6.2-22.6,0c-6.2-6.3-6.2-16.4,0-22.6l37-36.9
		c6.7-6.7,17.5-6.7,24.1,0l25.7,25.7l23.3-23.3c-8-3.8-11.4-13.4-7.6-21.3c2.7-5.6,8.3-9.1,14.5-9.1L215.4,67.4z"/>
</g>
</svg>
