<svg width="20" height="20" viewBox="0 0 20 20" fill="none" xmlns="http://www.w3.org/2000/svg">
<path d="M8 8H9V9H8C7.72386 9 7.5 8.77614 7.5 8.5C7.5 8.22386 7.72386 8 8 8Z" fill="#09244B"/>
<path d="M11 12V11H12C12.2761 11 12.5 11.2239 12.5 11.5C12.5 11.7761 12.2761 12 12 12H11Z" fill="#09244B"/>
<path fill-rule="evenodd" clip-rule="evenodd" d="M10 0C4.47715 0 0 4.47715 0 10C0 15.5228 4.47715 20 10 20C15.5228 20 20 15.5228 20 10C20 4.47715 15.5228 0 10 0ZM9 5C9 4.44771 9.44772 4 10 4C10.5523 4 11 4.44772 11 5V6H13C13.5523 6 14 6.44772 14 7C14 7.55228 13.5523 8 13 8H11V9H12C13.3807 9 14.5 10.1193 14.5 11.5C14.5 12.8807 13.3807 14 12 14H11V15C11 15.5523 10.5523 16 10 16C9.44772 16 9 15.5523 9 15V14H7C6.44772 14 6 13.5523 6 13C6 12.4477 6.44772 12 7 12H9V11H8C6.61929 11 5.5 9.88071 5.5 8.5C5.5 7.11929 6.61929 6 8 6H9V5Z" fill="#09244B"/>
</svg>
