<?xml version="1.0" encoding="utf-8"?>
<!-- Generator: Adobe Illustrator 28.3.0, SVG Export Plug-In . SVG Version: 6.00 Build 0)  -->
<svg version="1.1" id="Layer_1" xmlns="http://www.w3.org/2000/svg" xmlns:xlink="http://www.w3.org/1999/xlink" x="0px" y="0px"
	 viewBox="0 0 256 256" style="enable-background:new 0 0 256 256;" xml:space="preserve">
<style type="text/css">
	.st0{fill:none;}
</style>
<g>
	<path class="st0" d="M256,0v256H0V0H256z M134.3,248.1l-0.1,0l-0.8,0.4l-0.2,0l-0.1,0l-0.8-0.4c-0.1,0-0.2,0-0.3,0.1l0,0.1
		l-0.2,4.6l0.1,0.2l0.1,0.1l1.1,0.8l0.2,0l0.1,0l1.1-0.8l0.1-0.2l0-0.2l-0.2-4.6C134.5,248.2,134.4,248.1,134.3,248.1z M137.2,246.9
		l-0.1,0l-2,1l-0.1,0.1l0,0.1l0.2,4.6l0.1,0.1l0.1,0.1l2.1,1c0.1,0,0.2,0,0.3-0.1l0-0.1l-0.4-6.5C137.3,247,137.3,246.9,137.2,246.9
		z M129.5,246.9c-0.1,0-0.2,0-0.3,0.1l-0.1,0.1l-0.4,6.5c0,0.1,0.1,0.2,0.2,0.3l0.2,0l2.1-1l0.1-0.1l0-0.1l0.2-4.6l0-0.1l-0.1-0.1
		C131.5,247.9,129.5,246.9,129.5,246.9z"/>
	<path d="M32,64c0-17.7,14.3-32,32-32c17.7,0,32,14.3,32,32c0,13.6-8.6,25.6-21.3,30.2V123c6.5-3.7,13.8-5.7,21.3-5.7h64
		c11.8,0,21.3-9.6,21.3-21.3v-1.8c-16.7-5.9-25.4-24.2-19.5-40.8s24.2-25.4,40.8-19.5s25.4,24.2,19.5,40.8
		c-3.2,9.1-10.4,16.3-19.5,19.5V96c0,23.6-19.1,42.7-42.7,42.7H96c-11.8,0-21.3,9.6-21.3,21.3v1.8c16.7,5.9,25.4,24.2,19.5,40.8
		c-5.9,16.7-24.2,25.4-40.8,19.5c-16.7-5.9-25.4-24.2-19.5-40.8c3.2-9.1,10.4-16.3,19.5-19.5V94.2C40.5,89.7,32,77.6,32,64z"/>
</g>
</svg>
