<?xml version="1.0" encoding="utf-8"?>
<!-- Generator: Adobe Illustrator 28.3.0, SVG Export Plug-In . SVG Version: 6.00 Build 0)  -->
<svg version="1.1" id="Layer_1" xmlns="http://www.w3.org/2000/svg" xmlns:xlink="http://www.w3.org/1999/xlink" x="0px" y="0px"
	 viewBox="0 0 256 256" style="enable-background:new 0 0 256 256;" xml:space="preserve">
<style type="text/css">
	.st0{fill:none;}
</style>
<g>
	<path class="st0" d="M256,0v256H0V0H256z M134.3,248.1l-0.1,0l-0.8,0.4l-0.2,0l-0.1,0l-0.8-0.4c-0.1,0-0.2,0-0.3,0.1l0,0.1
		l-0.2,4.6l0.1,0.2l0.1,0.1l1.1,0.8l0.2,0l0.1,0l1.1-0.8l0.1-0.2l0-0.2l-0.2-4.6C134.5,248.2,134.4,248.1,134.3,248.1z M137.2,246.9
		l-0.1,0l-2,1l-0.1,0.1l0,0.1l0.2,4.6l0.1,0.1l0.1,0.1l2.1,1c0.1,0,0.2,0,0.3-0.1l0-0.1l-0.4-6.5C137.3,247,137.3,246.9,137.2,246.9
		z M129.5,246.9c-0.1,0-0.2,0-0.3,0.1l-0.1,0.1l-0.4,6.5c0,0.1,0.1,0.2,0.2,0.3l0.2,0l2.1-1l0.1-0.1l0-0.1l0.2-4.6l0-0.1l-0.1-0.1
		C131.5,247.9,129.5,246.9,129.5,246.9z"/>
	<path d="M138.7,138.7c23.6,0,42.7,19.1,42.7,42.7v16c0,8.8-7.2,16-16,16h-128c-8.8,0-16-7.2-16-16v-16c0-23.6,19.1-42.7,42.7-42.7
		H138.7z M202.7,138.7c17.7,0,32,14.3,32,32v16c0,8.8-7.2,16-16,16h-16v-21.3c0-16.8-7.9-32.6-21.3-42.7H202.7z M101.3,32
		c26.5,0,48,21.5,48,48s-21.5,48-48,48s-48-21.5-48-48S74.8,32,101.3,32z M192,64c17.7,0,32,14.3,32,32s-14.3,32-32,32
		s-32-14.3-32-32S174.3,64,192,64z"/>
</g>
</svg>
