<?xml version="1.0" encoding="utf-8"?>
<!-- Generator: Adobe Illustrator 28.3.0, SVG Export Plug-In . SVG Version: 6.00 Build 0)  -->
<svg version="1.1" id="Layer_1" xmlns="http://www.w3.org/2000/svg" xmlns:xlink="http://www.w3.org/1999/xlink" x="0px" y="0px"
	 viewBox="0 0 256 256" style="enable-background:new 0 0 256 256;" xml:space="preserve">
<style type="text/css">
	.st0{fill:none;}
</style>
<g>
	<path class="st0" d="M256,0v256H0V0H256z M134.3,248.1l-0.1,0l-0.8,0.4l-0.2,0l-0.1,0l-0.8-0.4c-0.1,0-0.2,0-0.3,0.1l0,0.1
		l-0.2,4.6l0.1,0.2l0.1,0.1l1.1,0.8l0.2,0l0.1,0l1.1-0.8l0.1-0.2l0-0.2l-0.2-4.6C134.5,248.2,134.4,248.1,134.3,248.1 M137.2,246.9
		l-0.1,0l-2,1l-0.1,0.1l0,0.1l0.2,4.6l0.1,0.1l0.1,0.1l2.1,1c0.1,0,0.2,0,0.3-0.1l0-0.1l-0.4-6.5C137.3,247,137.3,246.9,137.2,246.9
		 M129.5,246.9c-0.1,0-0.2,0-0.3,0.1l-0.1,0.1l-0.4,6.5c0,0.1,0.1,0.2,0.2,0.3l0.2,0l2.1-1l0.1-0.1l0-0.1l0.2-4.6l0-0.1l-0.1-0.1
		L129.5,246.9z"/>
	<path d="M170.7,32c5.9,0,10.7,4.8,10.7,10.7v10.7h21.3c11.2,0,20.4,8.6,21.3,19.7l0.1,1.6v128c0,11.2-8.6,20.4-19.7,21.3l-1.6,0.1
		H53.3c-11.2,0-20.4-8.6-21.3-19.7l-0.1-1.6v-128c0-11.2,8.6-20.4,19.7-21.3l1.6-0.1h21.3V42.7c0-5.9,4.8-10.7,10.7-10.7
		S96,36.8,96,42.7v10.7h64V42.7C160,36.8,164.8,32,170.7,32 M158.1,100l-45.2,45.2l-15.1-15.1c-4.2-4.1-11-4-15.1,0.3
		c-4,4.1-4,10.7,0,14.8l22.5,22.6c4.2,4.2,11,4.2,15.2,0c0,0,0,0,0,0l52.7-52.7c4.2-4.1,4.4-10.8,0.3-15.1
		c-4.1-4.2-10.8-4.4-15.1-0.3C158.3,99.9,158.2,100,158.1,100"/>
</g>
</svg>
