<?xml version="1.0" encoding="utf-8"?>
<!-- Generator: Adobe Illustrator 28.3.0, SVG Export Plug-In . SVG Version: 6.00 Build 0)  -->
<svg version="1.1" id="Layer_1" xmlns="http://www.w3.org/2000/svg" xmlns:xlink="http://www.w3.org/1999/xlink" x="0px" y="0px"
	 viewBox="0 0 256 256" style="enable-background:new 0 0 256 256;" xml:space="preserve">
<style type="text/css">
	.st0{fill:none;}
</style>
<g>
	<path class="st0" d="M256,0v256H0V0H256z M134.3,248.1l-0.1,0l-0.8,0.4l-0.2,0l-0.1,0l-0.8-0.4c-0.1,0-0.2,0-0.3,0.1l0,0.1
		l-0.2,4.6l0.1,0.2l0.1,0.1l1.1,0.8l0.2,0l0.1,0l1.1-0.8l0.1-0.2l0-0.2l-0.2-4.6C134.5,248.2,134.4,248.1,134.3,248.1 M137.2,246.9
		l-0.1,0l-2,1l-0.1,0.1l0,0.1l0.2,4.6l0.1,0.1l0.1,0.1l2.1,1c0.1,0,0.2,0,0.3-0.1l0-0.1l-0.4-6.5C137.3,247,137.3,246.9,137.2,246.9
		 M129.5,246.9c-0.1,0-0.2,0-0.3,0.1l-0.1,0.1l-0.4,6.5c0,0.1,0.1,0.2,0.2,0.3l0.2,0l2.1-1l0.1-0.1l0-0.1l0.2-4.6l0-0.1l-0.1-0.1
		L129.5,246.9z"/>
	<path d="M128,21.3c9.6,0,18.8,1.3,27.6,3.6l-22.7,22.7c-1.7,1.7-3.2,3.6-4.5,5.7H128c-41.2,0-74.7,33.4-74.7,74.7
		s33.4,74.7,74.7,74.7s74.7-33.4,74.7-74.7v-0.4c2-1.3,4-2.8,5.7-4.5l22.7-22.7c2.4,8.8,3.6,18.1,3.6,27.6
		c0,58.9-47.8,106.7-106.7,106.7S21.3,186.9,21.3,128S69.1,21.3,128,21.3 M123.6,74.8c0,9.1-0.4,18.3,0,27.3l-5.8,5.8
		c-8.3,8.3-8.3,21.8,0,30.2c8.3,8.3,21.8,8.3,30.2,0l5.8-5.8c9.1,0.5,18.3,0,27.3,0c-2.4,29.4-28.2,51.2-57.6,48.7
		c-29.4-2.4-51.2-28.2-48.7-57.6C77,97.6,97.6,77,123.6,74.8 M197.4,22.7c4,1.7,6.6,5.5,6.6,9.8v19.5h19.5c5.9,0,10.7,4.8,10.7,10.7
		c0,2.8-1.1,5.5-3.1,7.5l-37.7,37.7c-2,2-4.7,3.1-7.5,3.1H160l-19.5,19.5c-4.2,4.2-10.9,4.2-15.1,0c-4.2-4.2-4.2-10.9,0-15.1
		L144.9,96V70.3c0-2.8,1.1-5.5,3.1-7.6L185.7,25C188.8,21.9,193.4,21,197.4,22.7"/>
</g>
</svg>
